{"images":[{"name":"","uri":"1686239633188.png"}],"accessors":[{"componentType":5126,"min":[-290.92901611328125,132.9318084716797,-145.90834045410156],"bufferView":0,"max":[203.04336547851562,653.1705322265625,207.35353088378906],"count":171858,"type":"VEC3"},{"componentType":5126,"bufferView":1,"count":171858,"type":"VEC3"},{"componentType":5126,"bufferView":2,"count":171858,"type":"VEC2"},{"componentType":5125,"bufferView":3,"count":171858,"type":"SCALAR"}],"extensionsUsed":["MTL","avatar_shape_names","avatar_arcdata","avatar_glass_keypoints","Arc3DTech"],"textures":[{"name":"","source":0,"sampler":0}],"buffers":[{"byteLength":6186888,"name":"ArcsoftBuffer","uri":"1686239633188.bin"}],"bufferViews":[{"byteOffset":0,"byteLength":2062296,"buffer":0},{"byteOffset":2062296,"byteLength":2062296,"buffer":0},{"byteOffset":4124592,"byteLength":1374864,"buffer":0},{"byteOffset":5499456,"byteLength":687432,"buffer":0}],"samplers":[{"minFilter":9987,"name":"","wrapT":10497,"wrapS":10497,"magFilter":9729}],"scene":0,"nodes":[{"rotation":[0.0,0.0,0.0,1.0],"name":"","translation":[0.0,0.0,0.0],"scale":[1.0,1.0,1.0],"mesh":0}],"materials":[{"extensions":{"MTL":{"d":1.0,"Ns":5.0,"Ka":[0.429,0.535,0.382],"map_Kd":"1686239633188.png","Ks":[0.0,0.0,0.0],"Kd":[0.429,0.535,0.382],"illum":2.0}},"name":"","doubleSided":true,"pbrMetallicRoughness":{"baseColorTexture":{"index":0,"texCoord":0},"metallicFactor":1.0,"roughnessFactor":1.0},"alphaMode":"OPAQUE"}],"scenes":[{"nodes":[0]}],"asset":{"generator":"Arcsoftgltf v1.0","version":"2.0"},"meshes":[{"extensions":{"Arc3DTech":{"Model":"Human","ScanAngle":"-180.0;0.0;0.0;169.30301","Date":"6 8,2023 17:53:34"}},"primitives":[{"indices":3,"material":0,"attributes":{"POSITION":0,"TEXCOORD_0":2,"NORMAL":1}}],"name":"ArcsoftMeshes0"}]}